<?xml version="1.0" encoding="UTF-8"?>
<svg xmlns="http://www.w3.org/2000/svg" xmlns:xlink="http://www.w3.org/1999/xlink" viewBox="0 0 48 48" width="48px" height="48px">
<defs>
<linearGradient id="linear0" gradientUnits="userSpaceOnUse" x1="20.395" y1="1.634" x2="29.813" y2="60.07" gradientTransform="matrix(0.999999,0,0,0.999999,0,0)">
<stop offset="0" style="stop-color:rgb(100%,9.019608%,26.666668%);stop-opacity:1;"/>
<stop offset="0.443" style="stop-color:rgb(93.333334%,23.921569%,29.019609%);stop-opacity:1;"/>
<stop offset="1" style="stop-color:rgb(89.803922%,12.54902%,18.82353%);stop-opacity:1;"/>
</linearGradient>
<linearGradient id="linear1" gradientUnits="userSpaceOnUse" x1="20.961" y1="1.513" x2="26.530001" y2="42.716999" gradientTransform="matrix(0.999999,0,0,0.999999,0,0)">
<stop offset="0" style="stop-color:rgb(29.411766%,29.411766%,29.411766%);stop-opacity:1;"/>
<stop offset="1" style="stop-color:rgb(14.509805%,14.509805%,14.509805%);stop-opacity:1;"/>
</linearGradient>
</defs>
<g id="surface34224585">
<rect x="0" y="0" width="48" height="48" style="fill:rgb(6.666667%,9.019608%,10.196079%);fill-opacity:1;stroke:none;"/>
<path style=" stroke:none;fill-rule:nonzero;fill:url(#linear0);" d="M 42 10.5 L 42 37.5 C 42 39.980469 39.980469 42 37.5 42 L 10.5 42 C 8.019531 42 6 39.980469 6 37.5 L 6 10.5 C 6 8.019531 8.019531 6 10.5 6 L 37.5 6 C 39.980469 6 42 8.019531 42 10.5 Z M 42 10.5 "/>
<path style=" stroke:none;fill-rule:nonzero;fill:url(#linear1);" d="M 35.5 23.257812 C 35.46875 23.195312 35.421875 23.140625 35.386719 23.078125 C 36.1875 21.40625 36.21875 19.261719 35.296875 17.480469 C 34.195312 15.230469 31.699219 13.644531 29.105469 13.667969 C 29.035156 13.667969 28.964844 13.679688 28.894531 13.679688 C 27.847656 12.148438 26.007812 11.050781 24.003906 10.957031 C 21.503906 10.785156 18.882812 12.152344 17.605469 14.410156 C 17.570312 14.472656 17.546875 14.539062 17.511719 14.601562 C 15.660156 14.742188 13.789062 15.789062 12.707031 17.476562 C 11.308594 19.554688 11.183594 22.511719 12.5 24.742188 C 12.535156 24.804688 12.582031 24.859375 12.617188 24.921875 C 11.8125 26.59375 11.785156 28.738281 12.707031 30.519531 C 13.808594 32.769531 16.304688 34.355469 18.894531 34.332031 C 18.964844 34.332031 19.035156 34.320312 19.105469 34.320312 C 20.15625 35.851562 21.996094 36.949219 24 37.042969 C 26.5 37.214844 29.121094 35.847656 30.394531 33.589844 C 30.429688 33.527344 30.457031 33.460938 30.488281 33.398438 C 32.34375 33.257812 34.210938 32.210938 35.292969 30.523438 C 36.691406 28.445312 36.820312 25.488281 35.5 23.257812 Z M 33.125 18.734375 C 33.679688 19.511719 34.007812 20.476562 34.066406 21.507812 C 33.671875 21.152344 33.242188 20.832031 32.785156 20.574219 C 31.652344 19.984375 30.363281 19.660156 29.105469 19.75 C 27.355469 19.816406 25.738281 20.671875 24.660156 21.90625 C 24.496094 21.855469 24.335938 21.828125 24.171875 21.816406 C 24.191406 20.671875 24.53125 19.613281 25.136719 18.761719 C 26.050781 17.441406 27.574219 16.671875 29.101562 16.660156 C 30.652344 16.621094 32.171875 17.410156 33.125 18.734375 Z M 20.191406 15.910156 C 20.9375 14.550781 22.378906 13.628906 24 13.464844 C 24.953125 13.371094 25.949219 13.570312 26.871094 14.035156 C 26.367188 14.203125 25.878906 14.410156 25.425781 14.679688 C 24.347656 15.363281 23.421875 16.320312 22.871094 17.453125 C 22.050781 19.003906 21.984375 20.835938 22.515625 22.390625 C 22.398438 22.5 22.289062 22.621094 22.195312 22.761719 C 21.214844 22.171875 20.464844 21.347656 20.03125 20.394531 C 19.34375 18.941406 19.441406 17.238281 20.191406 15.910156 Z M 14.875 18.730469 C 15.273438 17.859375 15.941406 17.097656 16.804688 16.527344 C 16.699219 17.050781 16.636719 17.578125 16.640625 18.105469 C 16.695312 19.382812 17.058594 20.660156 17.765625 21.703125 C 18.699219 23.1875 20.25 24.160156 21.859375 24.476562 C 21.894531 24.640625 21.945312 24.800781 22.015625 24.949219 C 21.019531 25.5 19.933594 25.734375 18.894531 25.636719 C 17.292969 25.503906 15.863281 24.566406 15.089844 23.253906 C 14.285156 21.925781 14.207031 20.21875 14.875 18.730469 Z M 14.875 29.265625 C 14.320312 28.488281 13.992188 27.523438 13.933594 26.492188 C 14.328125 26.847656 14.757812 27.167969 15.214844 27.425781 C 16.347656 28.015625 17.636719 28.339844 18.894531 28.25 C 20.644531 28.183594 22.261719 27.328125 23.339844 26.09375 C 23.503906 26.144531 23.664062 26.171875 23.828125 26.183594 C 23.808594 27.328125 23.46875 28.386719 22.863281 29.238281 C 21.949219 30.558594 20.425781 31.328125 18.898438 31.339844 C 17.347656 31.378906 15.828125 30.589844 14.875 29.265625 Z M 27.808594 32.089844 C 27.0625 33.449219 25.621094 34.371094 24 34.535156 C 23.046875 34.628906 22.050781 34.429688 21.128906 33.964844 C 21.632812 33.796875 22.121094 33.589844 22.574219 33.320312 C 23.652344 32.636719 24.578125 31.679688 25.128906 30.546875 C 25.949219 28.996094 26.015625 27.164062 25.484375 25.609375 C 25.601562 25.5 25.710938 25.378906 25.804688 25.238281 C 26.785156 25.828125 27.535156 26.652344 27.96875 27.605469 C 28.65625 29.058594 28.558594 30.761719 27.808594 32.089844 Z M 33.125 29.269531 C 32.726562 30.140625 32.058594 30.902344 31.195312 31.472656 C 31.300781 30.949219 31.363281 30.421875 31.359375 29.894531 C 31.304688 28.621094 30.941406 27.339844 30.234375 26.296875 C 29.300781 24.8125 27.75 23.839844 26.140625 23.523438 C 26.105469 23.359375 26.054688 23.199219 25.984375 23.050781 C 26.980469 22.5 28.066406 22.265625 29.105469 22.363281 C 30.707031 22.496094 32.136719 23.433594 32.910156 24.746094 C 33.714844 26.074219 33.792969 27.78125 33.125 29.269531 Z M 33.125 29.269531 "/>
</g>
</svg>
