<?xml version="1.0" encoding="UTF-8"?>
<svg xmlns="http://www.w3.org/2000/svg" xmlns:xlink="http://www.w3.org/1999/xlink" viewBox="0 0 50 50" width="50px" height="50px">
<g id="surface34234942">
<rect x="0" y="0" width="50" height="50" style="fill:rgb(6.666667%,9.019608%,10.196079%);fill-opacity:1;stroke:none;"/>
<path style=" stroke:none;fill-rule:nonzero;fill:rgb(100%,9.019608%,26.666668%);fill-opacity:1;" d="M 9 4 C 6.25 4 4 6.25 4 9 L 4 41 C 4 43.75 6.25 46 9 46 L 41 46 C 43.75 46 46 43.75 46 41 L 46 9 C 46 6.25 43.75 4 41 4 Z M 9 6 L 41 6 C 42.667969 6 44 7.332031 44 9 L 44 41 C 44 42.667969 42.667969 44 41 44 L 9 44 C 7.332031 44 6 42.667969 6 41 L 6 9 C 6 7.332031 7.332031 6 9 6 Z M 23.394531 15.992188 C 22.339844 15.988281 21.394531 16.050781 20.550781 16.460938 C 20.550781 16.464844 20.550781 16.464844 20.550781 16.464844 C 20.140625 16.667969 19.851562 16.925781 19.617188 17.230469 C 19.503906 17.382812 19.386719 17.519531 19.324219 17.867188 C 19.289062 18.042969 19.273438 18.324219 19.457031 18.632812 C 19.636719 18.9375 20.003906 19.109375 20.238281 19.140625 C 20.402344 19.164062 20.769531 19.320312 20.800781 19.367188 C 20.804688 19.367188 20.804688 19.367188 20.804688 19.371094 C 20.804688 19.371094 20.945312 19.742188 20.988281 20.074219 C 21.027344 20.402344 21.027344 20.671875 21.027344 20.671875 C 21.027344 20.699219 21.027344 20.726562 21.027344 20.753906 C 21.027344 20.753906 21.085938 21.621094 21.046875 22.515625 C 21.035156 22.871094 20.988281 23.191406 20.9375 23.476562 C 20.582031 23.082031 20.058594 22.371094 19.300781 21.058594 C 18.460938 19.597656 17.789062 18.292969 17.789062 18.292969 C 17.757812 18.179688 17.632812 17.824219 17.144531 17.46875 C 16.617188 17.078125 16.101562 17.019531 16.101562 17.019531 C 16.039062 17.007812 15.972656 17 15.90625 17 L 11.964844 17.003906 C 11.964844 17.003906 11.730469 16.988281 11.445312 17.027344 C 11.164062 17.066406 10.738281 17.097656 10.324219 17.585938 C 9.957031 18.027344 9.980469 18.511719 10.023438 18.789062 C 10.066406 19.0625 10.167969 19.269531 10.167969 19.269531 C 10.167969 19.273438 10.171875 19.277344 10.171875 19.28125 C 10.171875 19.28125 13.398438 26.058594 17.039062 30.050781 C 19.6875 32.949219 22.402344 33 24.640625 33 L 26.3125 33 C 26.742188 33 27.128906 32.980469 27.554688 32.734375 C 27.980469 32.484375 28.269531 31.878906 28.269531 31.457031 C 28.269531 31.015625 28.335938 30.671875 28.414062 30.492188 C 28.472656 30.367188 28.519531 30.320312 28.585938 30.285156 C 28.601562 30.292969 28.59375 30.289062 28.632812 30.320312 C 28.800781 30.433594 29.074219 30.703125 29.375 31.035156 C 29.972656 31.699219 30.652344 32.613281 31.5625 33.242188 C 32.214844 33.6875 32.832031 33.886719 33.300781 33.960938 C 33.59375 34.007812 33.824219 33.996094 33.984375 33.984375 L 37.71875 34 C 37.742188 34 37.761719 34 37.785156 34 C 37.785156 34 38.429688 34.003906 39.097656 33.605469 C 39.433594 33.40625 39.828125 33.027344 39.953125 32.472656 C 40.082031 31.917969 39.921875 31.347656 39.605469 30.824219 C 39.605469 30.820312 39.605469 30.820312 39.605469 30.820312 C 39.660156 30.910156 39.558594 30.726562 39.449219 30.550781 C 39.34375 30.375 39.1875 30.140625 38.964844 29.851562 C 38.523438 29.269531 37.808594 28.457031 36.65625 27.382812 C 36.65625 27.382812 36.65625 27.382812 36.652344 27.382812 C 36.070312 26.839844 35.671875 26.453125 35.511719 26.238281 C 35.351562 26.023438 35.402344 26.136719 35.414062 26.082031 C 35.4375 25.972656 36.140625 24.960938 37.566406 23.050781 C 38.4375 21.890625 39.046875 21.015625 39.449219 20.292969 C 39.851562 19.566406 40.140625 18.9375 39.9375 18.167969 C 39.9375 18.167969 39.9375 18.164062 39.9375 18.164062 C 39.847656 17.828125 39.601562 17.515625 39.351562 17.347656 C 39.101562 17.175781 38.863281 17.109375 38.648438 17.070312 C 38.222656 16.984375 37.847656 17 37.503906 17 C 36.777344 17 33.5625 17.027344 33.296875 17.027344 C 32.984375 17.027344 32.46875 17.167969 32.238281 17.304688 C 31.664062 17.652344 31.5 18.105469 31.5 18.105469 C 31.488281 18.125 31.480469 18.144531 31.46875 18.164062 C 31.46875 18.164062 30.808594 19.636719 29.953125 21.089844 C 29.085938 22.5625 28.449219 23.265625 28.0625 23.589844 C 28.050781 23.53125 28.054688 23.578125 28.046875 23.5 C 28.011719 23.085938 28.050781 22.519531 28.050781 21.964844 C 28.050781 20.46875 28.175781 19.421875 28.109375 18.5 C 28.074219 18.035156 27.988281 17.558594 27.6875 17.121094 C 27.382812 16.683594 26.875 16.398438 26.375 16.277344 C 26.074219 16.203125 25.734375 16.015625 24.492188 16.003906 C 24.113281 16 23.75 15.992188 23.398438 15.992188 Z M 24.472656 18.003906 C 25.570312 18.015625 25.296875 18.074219 25.90625 18.222656 C 26.09375 18.269531 26.046875 18.269531 26.042969 18.261719 C 26.039062 18.253906 26.09375 18.359375 26.117188 18.648438 C 26.15625 19.222656 26.050781 20.367188 26.050781 21.964844 C 26.050781 22.398438 26 23.019531 26.054688 23.667969 C 26.105469 24.3125 26.269531 25.144531 27.042969 25.644531 C 27.40625 25.882812 27.832031 25.898438 28.199219 25.808594 C 28.5625 25.714844 28.890625 25.527344 29.238281 25.25 C 29.933594 24.695312 30.707031 23.757812 31.679688 22.101562 C 32.585938 20.554688 33.246094 19.085938 33.269531 19.035156 C 33.273438 19.03125 33.277344 19.03125 33.285156 19.027344 C 33.296875 19.027344 33.28125 19.027344 33.300781 19.027344 C 33.671875 19.027344 36.828125 19 37.503906 19 C 37.660156 19 37.71875 19.007812 37.84375 19.015625 C 37.808594 19.125 37.847656 19.054688 37.699219 19.324219 C 37.386719 19.882812 36.816406 20.71875 35.96875 21.851562 C 34.574219 23.710938 33.710938 24.441406 33.457031 25.679688 C 33.328125 26.296875 33.566406 26.980469 33.917969 27.445312 C 34.265625 27.90625 34.707031 28.304688 35.292969 28.847656 C 36.378906 29.859375 37.015625 30.589844 37.378906 31.070312 C 37.5625 31.308594 37.675781 31.480469 37.75 31.597656 C 37.820312 31.710938 37.800781 31.699219 37.894531 31.855469 C 37.957031 31.957031 37.933594 31.894531 37.945312 31.925781 C 37.824219 31.957031 37.679688 32 37.671875 32 L 33.992188 31.984375 C 33.925781 31.984375 33.859375 31.992188 33.796875 32.003906 C 33.796875 32.003906 33.804688 32.015625 33.609375 31.984375 C 33.410156 31.953125 33.097656 31.867188 32.695312 31.59375 C 32.210938 31.257812 31.53125 30.441406 30.863281 29.699219 C 30.53125 29.328125 30.199219 28.972656 29.785156 28.679688 C 29.371094 28.390625 28.753906 28.117188 28.089844 28.328125 C 27.394531 28.546875 26.855469 29.085938 26.59375 29.664062 C 26.398438 30.097656 26.382812 30.550781 26.351562 30.996094 C 26.320312 31 26.355469 30.996094 26.316406 30.996094 L 24.644531 30.996094 C 22.371094 30.996094 20.757812 31.15625 18.519531 28.699219 C 15.503906 25.398438 12.742188 19.90625 12.292969 19 L 15.761719 19 C 15.824219 19.023438 15.953125 19.074219 15.960938 19.078125 C 15.960938 19.078125 15.964844 19.082031 15.964844 19.082031 C 15.839844 18.988281 15.972656 19.121094 15.972656 19.121094 C 15.984375 19.148438 15.996094 19.179688 16.011719 19.207031 C 16.011719 19.207031 16.699219 20.550781 17.570312 22.058594 C 18.421875 23.535156 19.042969 24.457031 19.644531 25.066406 C 19.941406 25.371094 20.246094 25.617188 20.652344 25.753906 C 21.054688 25.890625 21.578125 25.839844 21.929688 25.648438 C 22.648438 25.253906 22.746094 24.675781 22.863281 24.167969 C 22.976562 23.660156 23.023438 23.117188 23.046875 22.601562 C 23.089844 21.597656 23.027344 20.726562 23.027344 20.675781 C 23.027344 20.65625 23.03125 20.292969 22.972656 19.828125 C 22.914062 19.351562 22.847656 18.769531 22.417969 18.1875 L 22.417969 18.183594 C 22.414062 18.179688 22.410156 18.179688 22.40625 18.175781 C 22.976562 18.09375 23.460938 17.992188 24.472656 18.003906 Z M 33.292969 18.984375 L 33.28125 19.015625 C 33.277344 19.015625 33.28125 19.015625 33.277344 19.015625 C 33.28125 19.007812 33.292969 18.984375 33.292969 18.984375 Z M 33.292969 18.984375 "/>
</g>
</svg>
